<svg width="120" height="125" viewBox="0 0 120 125" fill="none" xmlns="http://www.w3.org/2000/svg">
<g clip-path="url(#clip0_447_888)">
<path d="M60 0C26.8611 0 0 26.8449 0 59.964C0 84.5462 14.7877 105.657 35.9627 114.914L35.5253 99.055C22.5064 90.9038 13.8551 76.4592 13.8551 59.964C13.8551 34.5012 34.5154 13.8532 59.9936 13.8532C85.4717 13.8532 106.132 34.5012 106.132 59.964C106.132 76.8321 97.0626 91.5788 83.5485 99.6272L82.4228 115.595C104.447 106.711 119.994 85.1633 119.994 59.9704C120 26.8449 93.1389 0 60 0Z" fill="#04764E"/>
<path d="M59.0544 37.7411C58.9643 36.1533 57.5235 34.964 55.9154 35.2083C54.5003 35.4333 53.5548 36.7832 53.632 38.1975L54.4167 52.5006C54.4618 53.2785 53.8636 53.9406 53.0788 53.9856L50.5702 54.1206C49.7919 54.1656 49.1294 53.5678 49.0844 52.7835L48.3061 38.4803C48.2289 37.0725 47.1354 35.8383 45.7268 35.7611C44.0865 35.684 42.8001 37.0339 42.8901 38.6282L43.6749 53.0792C43.7199 53.8442 43.1217 54.5192 42.337 54.5642L39.8284 54.6992C39.0501 54.7442 38.3876 54.1463 38.3425 53.3621L37.5642 39.0589C37.4871 37.6511 36.3936 36.404 34.9849 36.3397C33.3511 36.2625 32.0582 37.6125 32.129 39.2067L33.2418 59.5719C33.454 63.4418 35.5381 66.9709 38.8443 69.0087C41.0055 70.3587 42.3434 72.7179 42.4013 75.2636L43.707 122.621C43.81 125.341 51.2778 125.611 54.8027 124.004C54.2173 122.621 54.0051 121.124 54.1852 119.607V119.562L54.198 119.529L55.5359 108.755L52.7765 74.6914C52.5514 72.1587 53.6191 69.6773 55.6324 68.1023C58.5269 65.8396 60.18 62.3875 60.18 58.7362C60.18 58.524 60.18 58.2991 60.1672 58.0933L59.0737 37.7282L59.0544 37.7411Z" fill="#04764E"/>
<path d="M90.3475 77.7063L89.0031 52.957C88.4885 43.4494 81.278 35.6968 71.9126 34.4176C71.4945 34.3597 71.1086 34.6747 71.0636 35.099L66.8569 78.3492L61.6275 120.455C61.2222 124.036 74.1896 125.296 74.4791 121.702L77.2064 82.9519L84.1596 83.6269C87.6009 83.9611 90.5276 81.1519 90.341 77.7063H90.3475Z" fill="#04764E"/>
</g>
<defs>
<clipPath id="clip0_447_888">
<rect width="120" height="125" fill="white"/>
</clipPath>
</defs>
</svg>
