<svg width="164" height="194" viewBox="0 0 164 194" fill="none" xmlns="http://www.w3.org/2000/svg">
<path d="M114.984 194H47.063C45.0781 194 43.4692 192.391 43.4692 190.406C43.4692 188.422 45.0781 186.813 47.063 186.813H114.984C116.969 186.813 118.578 188.422 118.578 190.406C118.578 192.391 116.969 194 114.984 194Z" fill="#F7DBB3"/>
<g clip-path="url(#clip0_447_643)">
<path d="M82 0C36.7101 0 0 36.5091 0 81.551C0 114.983 20.2099 143.693 49.149 156.283L48.5512 134.715C30.7588 123.629 18.9352 103.985 18.9352 81.551C18.9352 46.9216 47.1711 18.8403 81.9912 18.8403C116.811 18.8403 145.047 46.9216 145.047 81.551C145.047 104.492 132.652 124.547 114.183 135.493L112.645 157.21C142.744 145.127 163.991 115.822 163.991 81.5598C164 36.5091 127.29 0 82 0Z" fill="white"/>
<path d="M80.7078 51.3279C80.5848 49.1684 78.6156 47.5511 76.4179 47.8833C74.484 48.1893 73.1917 50.0252 73.2972 51.9486L74.3697 71.4009C74.4312 72.4587 73.6137 73.3592 72.5412 73.4204L69.1128 73.604C68.0492 73.6652 67.1437 72.8522 67.0822 71.7856L66.0185 52.3333C65.913 50.4186 64.4186 48.7401 62.4934 48.6351C60.2518 48.5302 58.4936 50.3662 58.6167 52.5343L59.6892 72.1877C59.7507 73.2281 58.9332 74.1461 57.8607 74.2073L54.4323 74.3909C53.3686 74.4521 52.4632 73.639 52.4016 72.5724L51.338 53.1201C51.2325 51.2055 49.7381 49.5094 47.8129 49.422C45.58 49.3171 43.8131 51.153 43.9098 53.3212L45.4306 81.0178C45.7207 86.2808 48.5689 91.0805 53.0873 93.8519C56.041 95.6879 57.8695 98.8964 57.9486 102.358L59.7331 166.765C59.8738 170.463 70.0798 170.831 74.8971 168.645C74.0972 166.765 73.8071 164.728 74.0532 162.665V162.604L74.0708 162.56L75.8993 147.907L72.1281 101.58C71.8204 98.1358 73.2796 94.7611 76.0312 92.6192C79.987 89.5418 82.2462 84.847 82.2462 79.8812C82.2462 79.5927 82.2462 79.2867 82.2286 79.007L80.7342 51.3104L80.7078 51.3279Z" fill="white"/>
<path d="M123.475 105.681L121.638 72.0216C120.934 59.0913 111.08 48.5477 98.2805 46.8079C97.7091 46.7292 97.1817 47.1576 97.1202 47.7346L91.371 106.555L84.2241 163.819C83.6703 168.689 101.392 170.402 101.788 165.515L105.515 112.815L115.018 113.733C119.721 114.187 123.721 110.367 123.466 105.681H123.475Z" fill="white"/>
</g>
<defs>
<clipPath id="clip0_447_643">
<rect width="164" height="170" fill="white"/>
</clipPath>
</defs>
</svg>
